<svg width="36" height="36" viewBox="0 0 36 36" fill="none" xmlns="http://www.w3.org/2000/svg">
<path d="M34.9706 4.92152C34.441 4.39101 33.5817 4.39009 33.0521 4.91927L16.7753 21.1532L10.9027 14.7749C10.3952 14.2241 9.53725 14.1884 8.98551 14.6957C8.43419 15.2032 8.3989 16.0615 8.90634 16.6129L15.7355 24.0295C15.9856 24.3013 16.3356 24.4592 16.7047 24.4668C16.7146 24.4673 16.7242 24.4673 16.7337 24.4673C17.0923 24.4673 17.4374 24.3248 17.6915 24.0715L34.9679 6.84041C35.4989 6.31131 35.4998 5.45202 34.9706 4.92152Z" fill="#0ED847"/>
<path d="M34.6432 16.6432C33.8938 16.6432 33.2864 17.2505 33.2864 18C33.2864 26.4293 26.4293 33.2864 18 33.2864C9.57122 33.2864 2.71357 26.4293 2.71357 18C2.71357 9.57122 9.57122 2.71357 18 2.71357C18.7494 2.71357 19.3568 2.10621 19.3568 1.35682C19.3568 0.607359 18.7494 0 18 0C8.07469 0 0 8.07469 0 18C0 27.9249 8.07469 36 18 36C27.9249 36 36 27.9249 36 18C36 17.2506 35.3926 16.6432 34.6432 16.6432Z" fill="#0ED847"/>
</svg>
